# xmcd CD database file
#
# Track frame offsets:
#	150
#	12956
#	38227
#	57520
#	70233
#	83286
#	99885
#	114404
#	134198
#	155601
#	168483
#	187602
#	212620
#	225671
#	252931
#	266455
#	291090
#
# Disc length: 4163 seconds
#
# Revision: 0
# Processed by: cddbd v1.5.2PL0 Copyright (c) Steve Scherf et al.
# Submitted via: jetAudio 7
#
DISCID=e1104111
DTITLE=Неизвестный артист - Неизвестный альбом
DYEAR=1900
DGENRE=Неизвестный жанр
TTITLE0=Трек 1
TTITLE1=Трек 2
TTITLE2=Трек 3
TTITLE3=Трек 4
TTITLE4=Трек 5
TTITLE5=Трек 6
TTITLE6=Трек 7
TTITLE7=Трек 8
TTITLE8=Трек 9
TTITLE9=Трек 10
TTITLE10=Трек 11
TTITLE11=Трек 12
TTITLE12=Трек 13
TTITLE13=Трек 14
TTITLE14=Трек 15
TTITLE15=Трек 16
TTITLE16=Трек 17
EXTD=
EXTT0=
EXTT1=
EXTT2=
EXTT3=
EXTT4=
EXTT5=
EXTT6=
EXTT7=
EXTT8=
EXTT9=
EXTT10=
EXTT11=
EXTT12=
EXTT13=
EXTT14=
EXTT15=
EXTT16=
PLAYORDER=
